<svg width="24" height="24" viewBox="0 0 24 24" fill="none" xmlns="http://www.w3.org/2000/svg">
<path d="M19.1375 6.00064H19.1975C19.6638 6.00076 20.1236 6.10955 20.5405 6.3184C20.9573 6.52725 21.3198 6.83039 21.5991 7.20376C21.8784 7.57714 22.0668 8.01048 22.1493 8.46937C22.2319 8.92827 22.2064 9.4001 22.0748 9.84741C21.9432 10.2947 21.7091 10.7052 21.3912 11.0462C21.0732 11.3873 20.6802 11.6496 20.2432 11.8122C19.8062 11.9749 19.3373 12.0334 18.8738 11.9832C18.3741 11.9291 17.7826 12.3878 17.9012 12.8763L18.1127 13.7478C18.1661 13.9685 18.1687 14.1983 18.1204 14.4201C18.072 14.6419 17.974 14.8499 17.8336 15.0282C17.6932 15.2066 17.5142 15.3508 17.31 15.45C17.1057 15.5491 16.8817 15.6006 16.6547 15.6006H15.7391C15.5121 15.6005 15.288 15.5489 15.0839 15.4496C14.8797 15.3503 14.7008 15.2059 14.5605 15.0274C14.4202 14.8489 14.3223 14.6409 14.2741 14.419C14.2259 14.1972 14.2287 13.9673 14.2823 13.7466L14.4967 12.8636C14.614 12.3806 14.0297 11.9268 13.5357 11.9821C13.2925 12.0093 13.0854 11.8332 12.9842 11.6103C12.9324 11.4963 12.8719 11.3867 12.8032 11.2824C12.5503 10.8983 12.4061 10.4243 12.4997 9.97406C12.5661 9.65452 12.5998 9.32836 12.5999 9.00064C12.5999 8.27313 12.4378 7.58386 12.1481 6.96603C11.9864 6.62104 12.0931 6.18495 12.4625 6.09145C12.8625 5.99017 13.1786 5.61145 13.2062 5.19968C13.2152 5.06592 13.2331 4.9326 13.2599 4.80064C13.419 4.0209 13.8814 3.33631 14.5453 2.89748C15.2092 2.45864 16.0202 2.30151 16.7999 2.46064C17.5796 2.61977 18.2642 3.08213 18.7031 3.74601C19.1415 4.40922 19.2987 5.21927 19.1404 5.99828C19.1401 5.99965 19.1389 6.00064 19.1375 6.00064ZM7.7999 5.40064C7.10496 5.40065 6.42487 5.60181 5.84173 5.97983C5.25859 6.35786 4.79734 6.89658 4.51363 7.53098C4.22993 8.16538 4.13591 8.86833 4.24292 9.55499C4.33363 10.137 4.56547 10.6862 4.91615 11.1555C4.98945 11.2536 4.92236 11.4006 4.7999 11.4006C4.48164 11.4006 4.17642 11.5271 3.95137 11.7521C3.72633 11.9772 3.5999 12.2824 3.5999 12.6006C3.5999 12.9189 3.72633 13.2241 3.95137 13.4492C4.17642 13.6742 4.48164 13.8006 4.7999 13.8006C5.12192 13.8006 5.36357 14.0971 5.27353 14.4063C4.75275 16.1947 3.73626 17.2573 3.1439 17.7522C2.7287 18.1002 2.3999 18.6354 2.3999 19.2594C2.3999 20.2206 3.1799 21.0006 4.1411 21.0006H11.4599C12.4199 21.0006 13.1999 20.2206 13.1999 19.2594C13.1999 18.6354 12.8711 18.1002 12.4559 17.7522C11.8635 17.2573 10.8471 16.1947 10.3263 14.4063C10.2362 14.0971 10.4779 13.8006 10.7999 13.8006C11.1182 13.8006 11.4234 13.6742 11.6484 13.4492C11.8735 13.2241 11.9999 12.9189 11.9999 12.6006C11.9999 12.2824 11.8735 11.9772 11.6484 11.7521C11.4234 11.5271 11.1182 11.4006 10.7999 11.4006C10.6775 11.4006 10.6104 11.2536 10.6837 11.1555C11.0343 10.6862 11.2662 10.137 11.3569 9.55499C11.4639 8.86833 11.3699 8.16538 11.0862 7.53098C10.8025 6.89658 10.3412 6.35786 9.75807 5.97983C9.17494 5.60181 8.49485 5.40065 7.7999 5.40064Z" fill="black"/>
</svg>
