<svg width="16" height="16" viewBox="0 0 16 16" fill="none" xmlns="http://www.w3.org/2000/svg">
<path d="M7.99932 4.91797C7.18175 4.91797 6.39766 5.24275 5.81955 5.82086C5.24144 6.39897 4.91666 7.18306 4.91666 8.00064C4.91666 8.81821 5.24144 9.6023 5.81955 10.1804C6.39766 10.7585 7.18175 11.0833 7.99932 11.0833C8.8169 11.0833 9.60099 10.7585 10.1791 10.1804C10.7572 9.6023 11.082 8.81821 11.082 8.00064C11.082 7.18306 10.7572 6.39897 10.1791 5.82086C9.60099 5.24275 8.8169 4.91797 7.99932 4.91797V4.91797ZM7.99932 10.0026C7.46818 10.0026 6.9588 9.79164 6.58322 9.41607C6.20765 9.04049 5.99666 8.53111 5.99666 7.99997C5.99666 7.46883 6.20765 6.95944 6.58322 6.58387C6.9588 6.2083 7.46818 5.9973 7.99932 5.9973C8.53046 5.9973 9.03985 6.2083 9.41542 6.58387C9.791 6.95944 10.002 7.46883 10.002 7.99997C10.002 8.53111 9.791 9.04049 9.41542 9.41607C9.03985 9.79164 8.53046 10.0026 7.99932 10.0026V10.0026Z" fill="#FF6300"/>
<path d="M11.204 5.52327C11.6009 5.52327 11.9227 5.20151 11.9227 4.8046C11.9227 4.4077 11.6009 4.08594 11.204 4.08594C10.8071 4.08594 10.4853 4.4077 10.4853 4.8046C10.4853 5.20151 10.8071 5.52327 11.204 5.52327Z" fill="#FF6300"/>
<path d="M13.6887 4.07408C13.5343 3.67554 13.2985 3.31361 12.9962 3.01146C12.694 2.70931 12.3319 2.4736 11.9333 2.31942C11.4669 2.14432 10.9741 2.04965 10.476 2.03942C9.83401 2.01142 9.63068 2.00342 8.00268 2.00342C6.37468 2.00342 6.16601 2.00342 5.52934 2.03942C5.0316 2.04912 4.53918 2.14382 4.07334 2.31942C3.67463 2.47342 3.31252 2.70906 3.01023 3.01124C2.70795 3.31341 2.47216 3.67543 2.31801 4.07408C2.14288 4.54049 2.04842 5.03331 2.03868 5.53142C2.01001 6.17275 2.00134 6.37608 2.00134 8.00475C2.00134 9.63275 2.00134 9.84008 2.03868 10.4781C2.04868 10.9768 2.14268 11.4688 2.31801 11.9361C2.47259 12.3346 2.70861 12.6965 3.01097 12.9986C3.31333 13.3007 3.67539 13.5365 4.07401 13.6908C4.53897 13.8729 5.03159 13.9743 5.53068 13.9908C6.17268 14.0188 6.37601 14.0274 8.00401 14.0274C9.63201 14.0274 9.84068 14.0274 10.4773 13.9908C10.9754 13.9806 11.4682 13.8862 11.9347 13.7114C12.3332 13.5569 12.6951 13.321 12.9973 13.0187C13.2996 12.7165 13.5355 12.3546 13.69 11.9561C13.8653 11.4894 13.9593 10.9974 13.9693 10.4988C13.998 9.85742 14.0067 9.65408 14.0067 8.02542C14.0067 6.39675 14.0067 6.19008 13.9693 5.55208C13.9616 5.04693 13.8666 4.54692 13.6887 4.07408V4.07408ZM12.8767 10.4288C12.8724 10.813 12.8023 11.1936 12.6693 11.5541C12.5692 11.8133 12.416 12.0488 12.2194 12.2452C12.0228 12.4417 11.7873 12.5948 11.528 12.6948C11.1715 12.827 10.7949 12.8972 10.4147 12.9021C9.78134 12.9314 9.60268 12.9388 7.97868 12.9388C6.35334 12.9388 6.18734 12.9388 5.54201 12.9021C5.16196 12.8974 4.78556 12.8273 4.42934 12.6948C4.16913 12.5954 3.93268 12.4425 3.73527 12.2461C3.53786 12.0496 3.3839 11.8138 3.28334 11.5541C3.15231 11.1975 3.08222 10.8213 3.07601 10.4414C3.04734 9.80808 3.04068 9.62942 3.04068 8.00542C3.04068 6.38075 3.04068 6.21475 3.07601 5.56875C3.08032 5.18477 3.15045 4.80436 3.28334 4.44408C3.48668 3.91808 3.90334 3.50408 4.42934 3.30275C4.78574 3.17084 5.16203 3.10073 5.54201 3.09542C6.17601 3.06675 6.35401 3.05875 7.97868 3.05875C9.60334 3.05875 9.77001 3.05875 10.4147 3.09542C10.7949 3.09999 11.1716 3.17013 11.528 3.30275C11.7873 3.40293 12.0228 3.55622 12.2193 3.75277C12.4159 3.94932 12.5692 4.1848 12.6693 4.44408C12.8004 4.80072 12.8705 5.17686 12.8767 5.55675C12.9053 6.19075 12.9127 6.36875 12.9127 7.99342C12.9127 9.61742 12.9127 9.79208 12.884 10.4294H12.8767V10.4288Z" fill="#FF6300"/>
</svg>
