<svg width="16" height="16" viewBox="0 0 16 16" fill="none" xmlns="http://www.w3.org/2000/svg">
<path d="M13.0887 5.3312C13.0973 5.44787 13.0973 5.56387 13.0973 5.67987C13.0973 9.22987 10.3953 13.3205 5.45734 13.3205C3.93601 13.3205 2.52268 12.8799 1.33334 12.1145C1.54934 12.1392 1.75734 12.1479 1.98201 12.1479C3.19067 12.1508 4.36511 11.7466 5.31601 11.0005C4.75562 10.9904 4.21239 10.8055 3.76217 10.4717C3.31194 10.1379 2.9772 9.6718 2.80468 9.13853C2.97068 9.1632 3.13734 9.17987 3.31201 9.17987C3.55268 9.17987 3.79468 9.14653 4.01934 9.08853C3.41118 8.96574 2.86433 8.6361 2.47176 8.15566C2.07919 7.67521 1.86514 7.07363 1.86601 6.4532V6.41987C2.22401 6.6192 2.63934 6.74387 3.07934 6.76053C2.71074 6.51559 2.40849 6.18322 2.19957 5.79306C1.99065 5.40291 1.88155 4.9671 1.88201 4.52453C1.88201 4.02587 2.01468 3.56853 2.24734 3.16987C2.9221 3.99988 3.76368 4.67891 4.71757 5.16297C5.67146 5.64704 6.71638 5.92534 7.78468 5.97987C7.74334 5.77987 7.71801 5.57253 7.71801 5.36453C7.71783 5.01184 7.78717 4.66257 7.92206 4.33669C8.05695 4.01081 8.25474 3.71472 8.50414 3.46532C8.75353 3.21593 9.04963 3.01814 9.3755 2.88325C9.70138 2.74836 10.0507 2.67902 10.4033 2.6792C11.1767 2.6792 11.8747 3.0032 12.3653 3.5272C12.9665 3.41094 13.543 3.19148 14.0693 2.87853C13.869 3.49908 13.4492 4.02527 12.8887 4.35853C13.4219 4.29772 13.943 4.1575 14.4347 3.94253C14.0674 4.47793 13.6124 4.94743 13.0887 5.3312V5.3312Z" fill="#FF6300"/>
</svg>
