<svg width="45" height="24" viewBox="0 0 45 24" fill="none" xmlns="http://www.w3.org/2000/svg">
<path fill-rule="evenodd" clip-rule="evenodd" d="M24.3843 19.8581C24.7776 19.4901 25.1935 19.1126 25.6279 18.7735C28.0325 16.8963 29.357 16.2308 32.02 15.0634C32.7964 14.7231 35.2373 14.1143 35.7268 13.7084L34.4244 11.5134C32.1541 12.8357 30.1682 14.2809 28.2708 15.9783L26.0929 18.0482C25.627 18.507 24.9827 19.203 24.3843 19.8581Z" fill="black"/>
<path fill-rule="evenodd" clip-rule="evenodd" d="M14.6914 15.9146C16.6569 16.8938 18.9712 18.4036 21.3918 20.8573L21.8198 21.2148C21.8073 17.1702 21.7874 13.0959 21.826 9.05153C21.8385 7.79899 21.5646 7.6718 20.9951 6.90171C20.2956 5.95605 19.2164 5.21606 18.0176 4.68225C17.5709 4.92341 17.1464 5.09135 16.6585 5.32552C16.432 5.82458 16.5548 6.49286 16.5027 7.08677C16.6289 8.18112 16.7985 8.88297 17.4526 9.7589C18.6207 11.1624 19.859 10.7326 20.2488 10.7934C19.2969 11.495 18.105 11.4073 17.2165 11.0754L16.3813 10.6944C16.2152 10.5861 16.0456 10.4857 15.8603 10.3468C15.7264 10.2463 15.4902 9.99807 15.3596 9.95921C15.1225 10.4238 15.0386 10.7214 14.9183 11.2982C14.7556 12.0779 14.6898 13.5246 14.6939 14.3482L14.7069 15.7384C14.7079 15.776 14.7107 15.7932 14.7067 15.8307C14.693 15.9777 14.7363 15.677 14.6967 15.8923L14.6914 15.9146Z" fill="black"/>
<path fill-rule="evenodd" clip-rule="evenodd" d="M38.5742 15.2394C33.45 16.1463 29.6901 17.0682 25.8471 20.4502C25.3368 20.8992 23.2981 22.9267 23.0327 23.8332C23.3663 23.71 25.9159 22.0089 27.2485 21.3364L29.9761 20.0577C32.7979 18.9022 35.69 18.3467 39.0555 18.3317C39.2577 18.6126 39.9645 19.6815 40.0688 20.0496C38.2798 20.1966 34.9099 20.005 33.4627 20.7597C34.767 20.8896 36.6852 20.766 38.123 20.8233C39.4352 20.8762 41.1198 21.1883 42.3367 21.1275C41.9587 20.2385 41.0184 19.427 40.6369 18.4397L44.7032 18.7596C44.5435 18.0116 37.3981 7.24356 36.6334 6.02026C36.0499 5.08672 35.9497 4.73444 35.0137 4.17702C33.5728 3.31909 32.4746 3.41393 30.9585 3.50439C31.7963 5.01409 35.3631 10.3445 36.6914 12.3342C37.259 13.1846 38.1774 14.4225 38.5742 15.2394Z" fill="black"/>
<path fill-rule="evenodd" clip-rule="evenodd" d="M0 18.7313C1.18019 18.8607 2.95591 18.2616 4.28455 18.4153C4.079 18.6181 2.54264 20.8221 2.39544 21.1235C3.41594 21.1976 5.40533 20.8746 6.60052 20.8138C8.17407 20.7339 9.67983 20.838 11.2116 20.7963C11.0977 20.7078 11.1069 20.6943 10.8879 20.6009C9.81691 20.145 5.6709 20.0726 4.62515 20.0749L5.68274 18.3581C10.3165 18.1158 14.705 19.7551 18.5359 21.8616C19.761 22.5355 20.9124 23.3779 21.9346 24.0001C20.351 21.5378 19.5599 20.9215 17.4929 19.3104C14.812 17.2203 9.90197 15.5839 6.19395 15.2738C6.8742 13.2864 10.702 9.45711 7.58397 8.12634C6.20797 8.75611 3.48935 15.1032 0 18.7313Z" fill="black"/>
<path fill-rule="evenodd" clip-rule="evenodd" d="M8.14212 12.6842C8.65143 12.6553 8.73715 12.7191 9.32569 12.5193C9.33194 12.8483 9.05142 13.4377 8.84986 13.718C8.56722 14.111 8.23026 14.3504 7.74157 14.6166L7.96533 14.6129C8.88449 14.4466 9.74431 13.9809 10.1655 13.1349C10.3031 12.8584 10.3565 12.5164 10.4327 12.3197C10.7747 12.1922 11.2053 12.0098 11.5495 11.9983C12.2319 12.6689 13.8799 15.1323 14.3428 16.0459C14.0964 14.8164 13.3197 12.6511 12.6205 11.6487L13.0335 11.5113C12.7635 10.7301 12.3485 10.078 11.8731 9.4609C11.4244 8.87861 10.89 8.48726 10.4582 7.92921C10.11 7.59383 9.63823 6.83648 9.42194 6.33979C9.27911 5.98867 9.42445 5.79862 9.54228 5.17723C9.68111 4.44837 9.70585 3.46225 9.56166 2.71677C9.49343 2.36402 9.3907 1.99589 9.24675 1.66289C9.22501 1.61253 9.19937 1.5522 9.17438 1.50422L9.06783 1.34863L9.13243 2.61656C8.99323 3.08164 9.10527 4.73976 8.01292 5.89771C7.5201 6.42027 7.21001 6.50949 6.58911 7.12014C6.2796 7.42466 5.70643 8.26111 5.64295 8.59036C5.41991 8.84689 5.21098 9.59249 5.12251 9.91987C5.05391 10.1733 4.82176 11.1041 4.84887 11.353C4.87624 11.276 4.91895 11.2308 4.96243 11.1354C5.11238 10.8063 5.30304 10.5088 5.49073 10.1907C5.5487 10.0926 5.55861 10.0526 5.62221 9.9556C5.72992 9.79141 5.81885 9.64811 5.92819 9.47455C6.16585 9.09731 6.91347 7.99433 7.50712 7.82026C10.0005 8.80928 9.01117 10.9605 8.14212 12.684V12.6842Z" fill="black"/>
<path fill-rule="evenodd" clip-rule="evenodd" d="M4.97048 2.26562L4.74992 2.34021C4.60672 2.49303 3.97805 2.99058 4.14711 3.51139C4.29306 3.55175 4.38476 3.4863 4.6674 3.50891C5.66141 3.58614 5.34429 3.99798 5.26045 4.35673C5.0329 5.32987 3.95643 4.61388 3.5662 4.90065C3.42612 5.12445 4.18526 6.28003 4.82703 6.20843C4.85152 6.11421 4.79287 5.72047 4.81437 5.55128C4.84323 5.32324 4.87034 5.12767 5.01441 4.9876C5.46412 4.55038 5.96181 5.23739 6.09388 5.37171C6.40589 5.68885 6.70717 5.87579 7.14513 5.92914C7.75329 6.00324 8.03081 5.70811 8.06292 5.22879C8.12827 4.25402 7.33446 2.5505 5.95409 3.22288C5.7223 3.33584 5.67398 3.53639 5.41557 3.45991C4.939 3.31896 5.34685 2.51377 4.97048 2.26624V2.26562Z" fill="black"/>
<path fill-rule="evenodd" clip-rule="evenodd" d="M15.1292 0.188118C13.9397 0.845378 14.4179 3.18727 14.9952 3.3842C15.6616 3.61174 17.45 2.7303 17.0596 1.0378C16.8539 0.146 15.9587 -0.270339 15.1292 0.188118Z" fill="black"/>
<path fill-rule="evenodd" clip-rule="evenodd" d="M18.8093 3.01015C17.0862 3.76349 16.5143 3.82509 14.9015 3.69951C13.2213 3.56856 11.8949 2.77662 11.7187 2.75L11.1173 2.4015C10.9272 2.29879 10.7143 2.14508 10.5209 2.02425L9.65456 1.4036C9.6232 1.37824 9.55921 1.3234 9.52597 1.29915C9.50911 1.28666 9.47273 1.26242 9.45436 1.25168C9.40725 1.22406 9.41561 1.2303 9.36963 1.21118C9.61242 1.61004 10.0384 2.0711 10.3473 2.43384C10.6977 2.84532 11.0255 3.15645 11.3843 3.5037C11.7198 3.82846 12.1593 4.16222 12.5106 4.39289C13.0011 4.71477 13.4788 4.89346 13.7387 5.06315C13.6593 5.23234 13.5842 5.59558 13.5437 5.799C13.4898 6.03154 13.4448 6.23373 13.3993 6.48414C13.3551 6.72668 13.3331 6.91261 13.2911 7.15402C13.1151 8.47254 13.1018 9.86462 13.3056 11.3161C13.4989 12.6908 13.9959 14.7204 14.6805 15.9544L14.6971 15.8928C14.7364 15.6775 14.6934 15.9783 14.7071 15.8312C14.7109 15.7937 14.7083 15.7765 14.7073 15.7389L14.6944 14.3487C14.6906 13.5252 14.7561 12.0785 14.9187 11.2987C15.0391 10.722 15.1229 10.4243 15.3599 9.95974C15.4905 9.9986 15.7268 10.2469 15.8608 10.3473C16.0461 10.4863 16.2157 10.5866 16.3818 10.6949L17.2169 11.0759C18.1055 11.4078 19.2973 11.4956 20.2492 10.7939C19.8595 10.7331 18.6211 11.1629 17.4531 9.75942C16.7989 8.88349 16.6294 8.18164 16.5032 7.08729C16.5553 6.49338 16.4324 5.82511 16.659 5.32604C17.2421 5.04602 17.7351 4.86073 18.2833 4.53173C19.4807 3.81299 20.7377 2.72577 21.4794 1.5347C21.5071 1.49022 21.4966 1.50481 21.5232 1.46282C21.5728 1.3846 21.517 1.46157 21.573 1.38835L21.5704 1.38087C21.188 1.58917 20.6727 1.97679 20.2647 2.22407C19.8265 2.48972 19.2881 2.79861 18.8096 3.01003L18.8093 3.01015Z" fill="black"/>
<path fill-rule="evenodd" clip-rule="evenodd" d="M33.5232 9.99181L32.2118 7.78162C30.1198 9.72153 28.3939 11.7087 26.8347 13.9551L25.1965 16.4739C24.5059 17.5785 23.3451 19.7624 22.9287 20.4775C22.9375 20.7141 22.9483 20.9234 22.961 21.1001C23.3971 20.1518 24.4864 18.5351 24.8042 18.1007C27.3394 14.6375 30.0304 12.4408 33.5232 9.99181Z" fill="black"/>
<path fill-rule="evenodd" clip-rule="evenodd" d="M31.2391 6.14661C30.8542 5.52421 30.3817 4.81622 30.0596 4.1842C28.2181 6.59132 26.7945 8.96281 25.6042 11.5837L24.4447 14.3556C23.9408 15.6232 23.1422 18.1471 22.8955 18.8C22.8993 19.2045 22.9056 19.5815 22.913 19.9217C23.1643 18.8746 23.7624 17.2829 23.9548 16.8246C25.7484 12.5544 28.0611 9.67669 31.2391 6.14661Z" fill="black"/>
<path fill-rule="evenodd" clip-rule="evenodd" d="M27.8873 4.16992C26.2654 4.69398 24.7473 5.76074 23.8059 6.84259C23.1431 7.60406 22.9297 7.77214 22.9367 9.05129C22.9467 10.8073 22.8878 14.4222 22.8877 17.3466C23.0015 16.3788 23.2003 15.2985 23.2829 14.9242C24.1927 10.8024 25.7341 7.74087 27.8873 4.16992Z" fill="black"/>
</svg>
