<svg width="87" height="24" viewBox="0 0 87 24" fill="none" xmlns="http://www.w3.org/2000/svg">
<path fillRule="evenodd" clipRule="evenodd" d="M4.87026 5.61694C4.87026 2.68402 4.88817 2.32844 4.92336 1.75977C4.95903 1.13784 5.08349 0.7998 5.56355 0.711022C5.81245 0.657916 5.98998 0.657955 6.16738 0.640038C6.41628 0.640038 6.59427 0.604361 6.59427 0.444721C6.59427 0.338025 6.48779 0.284576 6.16738 0.284576C5.52785 0.284576 3.32372 0.338023 3.16408 0.338023C2.4708 0.338023 1.54646 0.284576 0.533094 0.284576C0.177495 0.284576 0 0.320275 0 0.462159C0 0.604367 0.177496 0.640038 0.373294 0.640038C0.63963 0.657955 0.906457 0.675699 1.06658 0.728805C1.5108 0.853256 1.63526 1.15527 1.67061 1.65307C1.70628 2.2219 1.72411 2.54166 1.72411 5.43892V8.56728C1.72411 9.66943 1.70628 10.7356 1.67061 11.4466C1.6175 12.8687 1.59958 13.1886 0.959884 13.2952C0.764087 13.3309 0.56879 13.3488 0.35556 13.3665C0.106657 13.3665 0 13.4196 0 13.5262C0 13.6864 0.142321 13.7221 0.391224 13.7221C1.3686 13.7221 2.32859 13.6685 3.16408 13.6685C5.0478 13.6685 6.70095 13.7752 9.15383 13.7752C9.86438 13.7752 10.0068 13.7573 10.1492 13.2952C10.3266 12.7799 10.5225 11.0911 10.5225 10.6825C10.5225 10.4336 10.5046 10.3448 10.3801 10.3448C10.2377 10.3448 10.2026 10.4872 10.1492 10.6825C9.9537 11.518 9.65116 11.9801 9.22486 12.1756C8.72689 12.4423 8.15823 12.4597 7.18086 12.4597C5.70519 12.4597 5.36754 12.3709 5.11912 12.0332C4.81679 11.6599 4.87026 10.38 4.87026 8.58507V5.61694ZM14.5393 10.4872C14.5393 10.7713 14.5215 11.5711 14.4685 12.3178C14.4327 12.833 14.3261 13.1528 13.864 13.2772C13.7039 13.3308 13.5263 13.3308 13.2417 13.3665C13.0285 13.3665 12.9218 13.4375 12.9218 13.5262C12.9218 13.6508 13.0285 13.7221 13.2774 13.7221C14.0772 13.7221 15.5172 13.6685 16.0323 13.6685C16.6189 13.6685 18.0941 13.7221 19.3739 13.7221C19.6406 13.7221 19.7293 13.6508 19.7293 13.562C19.7293 13.4376 19.6585 13.3839 19.4453 13.3665C19.1428 13.3308 18.7873 13.3309 18.4674 13.26C17.8099 13.1356 17.7743 12.6907 17.7386 12.2465C17.6855 11.5003 17.6855 10.7713 17.6855 10.4872V9.22525C17.6855 8.97635 17.7035 8.28308 17.9696 7.53637C18.2185 6.79014 20.7603 2.43512 21.3646 1.68874C21.6846 1.27971 21.8625 0.977713 22.36 0.7824C22.5732 0.711054 22.8221 0.657955 23.0531 0.640038C23.2842 0.640038 23.4086 0.586606 23.4086 0.444721C23.4086 0.320269 23.2663 0.284576 23.0531 0.284576C22.7154 0.284576 21.2581 0.338023 21.0092 0.338023C20.3338 0.338023 19.7293 0.284576 19.0005 0.284576C18.7163 0.284576 18.6098 0.338025 18.6098 0.444721C18.6098 0.568688 18.7521 0.622246 18.9118 0.657919C19.4453 0.746698 19.5518 0.906834 19.5518 1.10215C19.5518 1.3333 19.4453 1.63533 19.2672 2.00868C18.9296 2.71972 17.9696 4.49688 16.8857 6.54121C16.6011 6.00773 14.3793 2.06209 14.095 1.54652C13.9706 1.31538 13.9171 1.15527 13.9171 1.03082C13.9171 0.888934 13.9885 0.711025 14.4685 0.657919C14.7347 0.604329 14.824 0.568675 14.824 0.42679C14.824 0.320256 14.6817 0.284576 14.4857 0.284576C13.3662 0.284576 12.2466 0.338023 11.9446 0.338023C11.2688 0.338023 9.93588 0.284576 9.20693 0.284576C8.9937 0.284576 8.85137 0.320269 8.85137 0.444721C8.85137 0.551256 8.9406 0.622282 9.11816 0.640038C9.26053 0.657955 9.47379 0.693132 9.58032 0.728805C10.1491 0.906846 10.3444 1.13782 11.0203 2.16878C11.6242 3.07513 13.3839 6.00773 14.0415 7.21657C14.344 7.80315 14.5393 8.15859 14.5393 9.11821V10.4872ZM24.6527 11.109C24.5996 12.7622 24.5105 13.2064 23.8172 13.3131C23.6219 13.3488 23.3907 13.3488 23.2306 13.3665C22.9822 13.3665 22.8929 13.4376 22.8929 13.5441C22.8929 13.6865 23.0353 13.7221 23.2842 13.7221C23.9773 13.7221 25.2929 13.6685 25.7014 13.6685C26.8032 13.6864 27.3723 13.7221 27.9943 13.7221C28.2789 13.7221 28.4207 13.6865 28.4207 13.5441C28.4207 13.4376 28.3319 13.3839 28.0657 13.3665C27.7101 13.3308 27.3898 13.3309 27.1235 13.2421C26.6256 13.064 26.5548 12.5841 26.5191 11.3043L26.3416 5.2436C27.6387 6.50555 29.4164 8.17654 30.4116 9.08289C31.4782 10.0603 33.042 11.4646 34.2508 12.5311C35.4062 13.5441 35.9571 13.9705 36.2417 13.9705C36.4729 13.9705 36.5973 13.7752 36.5973 12.8687C36.6681 9.29612 36.6682 5.74139 36.8104 2.16878C36.8635 1.06647 37.0415 0.764486 37.6281 0.69314C37.7525 0.657952 37.8413 0.657955 38.0723 0.640038C38.2856 0.640038 38.3743 0.5335 38.3743 0.444721C38.3743 0.338025 38.2499 0.284576 37.9838 0.284576C37.2369 0.284576 36.3482 0.338023 35.9571 0.338023C35.2461 0.338023 34.0906 0.284576 33.3801 0.284576C33.1843 0.284576 33.0247 0.33803 33.0247 0.462159C33.0247 0.551261 33.1134 0.640038 33.3444 0.640038C33.5933 0.657955 33.8775 0.675699 34.1264 0.728805C34.8374 0.853256 34.9262 1.31536 34.962 2.31065L35.0685 8.97634C34.5885 8.5494 33.3623 7.35881 31.549 5.68783C27.4791 1.95509 26.5548 1.06649 25.8081 0.444721C25.346 0.0713663 25.2572 0.0177829 25.1148 0.0177829C24.9016 0.0177829 24.8308 0.33801 24.8129 0.871167C24.7063 3.16392 24.7414 7.44757 24.6527 11.109ZM41.6093 8.56728C41.6093 10.0959 41.5735 11.3579 41.5204 12.2113C41.467 12.9044 41.2895 13.2421 40.9339 13.2952C40.7386 13.3309 40.6142 13.3488 40.383 13.3665C40.1872 13.3665 40.0453 13.4196 40.0453 13.5441C40.0453 13.6329 40.0984 13.7221 40.4005 13.7221C40.8983 13.7221 41.1293 13.7042 41.6271 13.6865C42.1249 13.6685 42.5515 13.6685 42.9779 13.6685C43.3156 13.6685 44.0443 13.7221 44.7376 13.793C45.3242 13.8461 45.9286 13.8638 46.6392 13.8638C50.2118 13.8638 51.847 12.6377 52.7184 11.7491C53.7314 10.7892 54.6735 9.02943 54.6735 6.87889C54.6735 4.76354 53.8737 3.27061 52.9673 2.3641C51.3498 0.711036 48.9678 0.320276 45.9286 0.302359C44.4352 0.320276 43.6354 0.338023 43.0493 0.338023C42.2669 0.338023 40.6315 0.284576 40.1872 0.284576C39.8852 0.284576 39.7787 0.338025 39.7787 0.444721C39.7787 0.5335 39.8495 0.622282 40.1163 0.640038C40.454 0.675711 40.6315 0.675707 40.7737 0.69314C41.4491 0.764486 41.5384 1.24453 41.5736 1.75977C41.6093 2.32844 41.6093 2.82624 41.6093 5.43892V8.56728ZM44.7554 5.15483C44.7554 3.71484 44.7908 2.43512 44.7734 1.8311C44.7734 1.67098 44.7908 1.58221 44.933 1.51086C45.0931 1.42208 45.5018 1.36899 45.8929 1.36899C47.066 1.36899 48.7545 1.70666 49.9808 3.3063C50.7275 4.31934 51.3141 5.75917 51.3141 7.37671C51.3141 9.04721 51.0831 10.6291 50.1588 11.5532C49.2166 12.531 48.1679 12.7978 46.9239 12.7978C46.1418 12.7978 45.413 12.5489 45.0931 12.1577C44.8973 11.9623 44.8264 11.6068 44.7907 10.878C44.7733 10.5403 44.7554 9.31402 44.7554 7.42982V5.15483ZM58.1393 8.56728C58.1393 9.66943 58.1216 10.7182 58.0859 11.4287C58.0508 12.5489 57.9792 13.2243 57.4819 13.2952C57.3397 13.3309 57.1617 13.3488 56.9484 13.3665C56.6821 13.3665 56.5929 13.4553 56.5929 13.5441C56.5929 13.6685 56.6995 13.7221 57.0198 13.7221C57.9971 13.7221 58.7438 13.6685 59.5793 13.6685C61.4453 13.6685 62.7787 13.7752 65.2315 13.7752C65.8891 13.7752 66.0136 13.7573 66.138 13.2952C66.2268 12.9575 66.4221 11.6068 66.4221 10.9136C66.4221 10.7004 66.4043 10.5224 66.2625 10.5224C66.1558 10.5224 66.0844 10.6291 66.0488 10.8421C65.8891 11.6599 65.6758 12.0512 65.178 12.2465C64.6802 12.4423 63.987 12.4597 63.5249 12.4597C61.5519 12.4597 61.3035 12.1756 61.2857 10.9314C61.2678 10.2561 61.2857 9.20734 61.2857 8.603V7.37671C61.2857 7.23435 61.3034 7.14554 61.3922 7.14554C61.9431 7.14554 63.4004 7.1809 63.8982 7.21657C64.7693 7.26968 65.0179 7.572 65.0893 8.08724C65.107 8.22961 65.1245 8.35409 65.1424 8.4963C65.178 8.6561 65.2138 8.78053 65.3382 8.78053C65.4448 8.78053 65.4978 8.67384 65.4978 8.44285C65.4978 8.24738 65.4979 7.37669 65.5158 6.96766C65.5692 6.27438 65.6579 5.63473 65.6579 5.45685C65.6579 5.35015 65.658 5.2436 65.5514 5.2436C65.4627 5.2436 65.4091 5.31446 65.3026 5.47458C65.1071 5.79451 64.876 5.84794 64.0049 5.88329C63.3652 5.90105 61.9252 5.91894 61.4274 5.90103C61.3034 5.90103 61.2857 5.81228 61.2857 5.68783V1.77751C61.2857 1.65305 61.3208 1.59997 61.4274 1.59997C61.9608 1.59997 63.5071 1.63531 64.0937 1.68874C64.947 1.75976 65.178 1.99073 65.2668 2.39976C65.3382 2.64834 65.3557 2.82624 65.3557 3.02172C65.3734 3.18184 65.4447 3.27063 65.5335 3.27063C65.6402 3.27063 65.711 3.16393 65.711 3.02172C65.7646 2.09745 65.8003 1.47552 65.8534 1.12008C65.9068 0.604355 65.9423 0.426802 65.9423 0.338023C65.9423 0.248922 65.9248 0.177879 65.8356 0.177879C65.7647 0.177879 65.6759 0.213562 65.5514 0.248912C65.3734 0.284585 64.9469 0.320241 64.5914 0.320241C64.3074 0.320241 59.9522 0.338023 59.5793 0.338023C58.7969 0.338023 57.944 0.284576 56.9305 0.284576C56.6464 0.284576 56.5399 0.338025 56.5399 0.444721C56.5399 0.551256 56.6285 0.622282 56.8597 0.640038C57.0377 0.657955 57.2861 0.657952 57.4463 0.69314C57.8905 0.799836 58.0508 1.10217 58.0859 1.61741C58.1216 2.18624 58.1393 2.54166 58.1393 5.43892V8.56728ZM82.9522 0.69314C82.8988 0.248924 82.7921 0 82.6142 0C82.4366 0 82.2942 0.177904 82.0101 0.640038L77.14 9.24269L72.0564 0.728805C71.6831 0.177892 71.5587 0 71.3633 0C71.1858 0 71.0614 0.160145 70.9901 0.69314L69.3724 11.6247C69.1949 12.7978 69.0171 13.2064 68.5018 13.3131C68.3059 13.3488 68.1105 13.3488 67.9683 13.3665C67.7198 13.3665 67.6127 13.4376 67.6127 13.5441C67.6127 13.7221 67.8264 13.7221 68.004 13.7221C68.6614 13.7221 69.4969 13.6685 70.0478 13.6685C70.5813 13.6685 71.5587 13.7221 72.3406 13.7221C72.6253 13.7221 72.6961 13.6685 72.6961 13.5262C72.6961 13.4196 72.6431 13.3665 72.3762 13.3665C72.1452 13.3488 71.9856 13.3308 71.7188 13.2772C71.2746 13.1886 71.0966 12.9754 71.0966 12.4597C71.0966 12.1933 71.0965 11.8022 71.1679 11.0381L71.6831 6.02551C72.0208 6.63001 72.8027 8.08727 73.1052 8.603C73.7806 9.7405 74.8649 11.7664 75.4867 12.7622C75.9845 13.5441 76.0912 13.7221 76.2865 13.7221C76.4289 13.7221 76.5354 13.6149 77.0155 12.7086L80.6769 5.84792L81.3169 12.2113C81.3879 13.0111 81.37 13.1176 81.0859 13.2243C80.9615 13.26 80.8902 13.3309 80.8902 13.4017C80.8902 13.491 80.9614 13.5977 81.2991 13.6149C83.3252 13.7221 84.765 13.7221 86.2402 13.7221C86.5248 13.7221 86.6667 13.6865 86.6667 13.5441C86.6667 13.4196 86.5601 13.3665 86.329 13.3665C86.098 13.3488 85.6716 13.3131 85.316 13.2064C84.7294 13.0289 84.5518 12.5841 84.4096 11.4287L82.9522 0.69314Z" fill="black"/>
<path fillRule="evenodd" clipRule="evenodd" d="M9.06673 22.3856C9.06673 22.8584 9.06196 23.1293 9.0555 23.3365C9.0442 23.7346 8.97587 23.8087 8.86417 23.8356C8.82721 23.8469 8.79511 23.8469 8.74201 23.8517C8.71005 23.8566 8.68358 23.8679 8.68358 23.8837C8.68358 23.9158 8.71001 23.9263 8.76861 23.9263C8.90678 23.9311 9.03402 23.9102 9.1617 23.9102C9.36848 23.9102 9.61289 23.9215 9.82563 23.9263C10.0324 23.9311 10.2076 23.9425 10.6007 23.9425C10.808 23.9425 10.8501 23.9425 10.8876 23.8043C10.9141 23.6926 10.9566 23.3316 10.9566 23.289C10.9566 23.2521 10.9566 23.2095 10.9246 23.2095C10.898 23.2095 10.8875 23.2304 10.877 23.289C10.8344 23.5174 10.7759 23.629 10.6062 23.6821C10.4626 23.7247 10.2872 23.7297 10.1279 23.7297C9.92064 23.7297 9.77748 23.7184 9.68741 23.6821C9.55473 23.629 9.52263 23.5123 9.51214 23.2945C9.5073 23.183 9.51214 22.567 9.51214 22.3862V21.9191C9.51214 21.8976 9.52184 21.8822 9.54928 21.8822C9.63935 21.8822 10.165 21.8934 10.3087 21.9086C10.4995 21.9296 10.5636 22.0039 10.5845 22.0839C10.6007 22.1315 10.6062 22.1845 10.6062 22.2326C10.6062 22.2747 10.611 22.3172 10.6432 22.3172C10.6643 22.3172 10.6748 22.2907 10.6803 22.2376C10.6851 22.1635 10.6851 22.0413 10.7018 21.8766C10.7179 21.7013 10.7438 21.6113 10.7438 21.5792C10.7438 21.5472 10.7326 21.5365 10.7174 21.5365C10.6963 21.5365 10.6803 21.5582 10.6538 21.5896C10.6007 21.6532 10.5316 21.6694 10.3883 21.6799C10.2663 21.6912 9.61285 21.6912 9.54377 21.6912C9.51713 21.6912 9.51214 21.675 9.51214 21.6381V20.1721C9.51214 20.135 9.52181 20.119 9.54377 20.119C9.6022 20.119 10.181 20.1238 10.2712 20.1351C10.505 20.1566 10.6167 20.2097 10.6538 20.3319C10.6699 20.374 10.6803 20.4381 10.6803 20.5072C10.6803 20.5492 10.6899 20.5758 10.7229 20.5758C10.7438 20.5758 10.7598 20.5387 10.7653 20.4856C10.775 20.3474 10.7815 20.2468 10.7865 20.1673C10.7962 20.0184 10.829 19.9549 10.829 19.9174C10.829 19.8908 10.8241 19.8698 10.808 19.8698C10.7918 19.8698 10.7813 19.8746 10.7494 19.8908C10.7174 19.9069 10.6217 19.9174 10.505 19.9229C10.3828 19.9277 9.32634 19.9277 9.28889 19.9277C8.95444 19.9116 8.81113 19.9116 8.6891 19.9116C8.63051 19.9116 8.60388 19.9229 8.60388 19.954C8.60388 19.9752 8.63598 19.9807 8.67294 19.9857C8.72056 19.9905 8.78962 19.9905 8.82723 20.0018C9.00236 20.0389 9.04452 20.124 9.0555 20.3048C9.0668 20.4744 9.06673 20.6233 9.06673 21.4513V22.3856ZM14.7635 22.3856C14.7635 22.8953 14.7635 23.315 14.7369 23.5383C14.7154 23.6919 14.6889 23.8086 14.5827 23.8301C14.5351 23.8414 14.4926 23.8463 14.434 23.8513C14.3914 23.8513 14.3809 23.8674 14.3809 23.8832C14.3809 23.9153 14.4073 23.9258 14.4659 23.9258C14.5455 23.9258 14.6677 23.9145 14.7739 23.9145C14.8855 23.9097 14.9757 23.9097 14.9862 23.9097C15.0129 23.9097 15.1935 23.9259 15.4274 23.9417C15.6556 23.9578 15.9369 23.9733 16.1653 23.9733C17.0681 23.9733 17.5458 23.6017 17.7742 23.3628C18.0715 23.0493 18.3478 22.5343 18.3478 21.8652C18.3478 21.2334 18.0981 20.7923 17.8326 20.5164C17.2008 19.863 16.229 19.9111 15.7033 19.9111C15.3848 19.9111 15.0503 19.9273 14.9862 19.9273C14.9598 19.9273 14.6253 19.9111 14.3864 19.9111C14.3278 19.9111 14.3013 19.9224 14.3013 19.9536C14.3013 19.9747 14.3228 19.9852 14.3597 19.9852C14.4074 19.9852 14.4981 19.99 14.54 20.0013C14.7153 20.0385 14.7419 20.1235 14.7528 20.3043C14.7641 20.4739 14.7641 20.6228 14.7641 21.4508L14.7635 22.3856ZM15.2095 21.3662C15.2095 20.9572 15.2095 20.4154 15.2143 20.2352C15.2143 20.1766 15.2305 20.15 15.2782 20.129C15.3204 20.1076 15.5171 20.0915 15.6234 20.0915C16.2551 20.0915 16.8606 20.1661 17.3597 20.6919C17.5776 20.9201 17.8694 21.3558 17.8694 22.0297C17.8694 22.5183 17.7207 23.028 17.4447 23.2989C17.1314 23.6123 16.6748 23.7932 16.181 23.7932C15.5542 23.7932 15.3473 23.6814 15.2782 23.5804C15.2358 23.5223 15.2253 23.3099 15.2198 23.1769C15.215 23.0761 15.2085 22.5874 15.2085 22.0247L15.2095 21.3662ZM22.4088 21.4508C22.4088 20.6228 22.4088 20.4739 22.4201 20.3043C22.4298 20.118 22.4732 20.0223 22.6163 20.0013C22.6799 19.9917 22.7119 19.9852 22.749 19.9852C22.7705 19.9852 22.7915 19.9739 22.7915 19.9536C22.7915 19.9216 22.765 19.9111 22.7064 19.9111C22.5472 19.9111 22.2288 19.9273 22.1807 19.9273C22.1331 19.9273 21.8091 19.9111 21.5703 19.9111C21.5118 19.9111 21.4853 19.9224 21.4853 19.9536C21.4853 19.9747 21.5063 19.9852 21.5278 19.9852C21.5754 19.9852 21.6659 19.99 21.7081 20.0013C21.8834 20.0385 21.9258 20.1235 21.9367 20.3043C21.948 20.4739 21.9481 20.6228 21.9481 21.4508V22.2264C21.9481 23.0015 22.1499 23.3735 22.4097 23.6229C22.7866 23.9789 23.3235 23.9999 23.5036 23.9999C23.8171 23.9999 24.2151 23.9468 24.5977 23.6068C25.0227 23.2298 25.0863 22.593 25.0863 22.0192V21.4508C25.0863 20.6228 25.0864 20.4739 25.0977 20.3043C25.1074 20.118 25.1506 20.0335 25.2942 20.0013C25.358 19.9917 25.3895 19.9852 25.4271 19.9852C25.4481 19.9852 25.469 19.9739 25.469 19.9536C25.469 19.9216 25.4426 19.9111 25.3845 19.9111C25.2251 19.9111 24.9754 19.9273 24.9383 19.9273C24.9063 19.9273 24.6144 19.9111 24.3756 19.9111C24.317 19.9111 24.2904 19.9224 24.2904 19.9536C24.2904 19.9747 24.3115 19.9852 24.333 19.9852C24.3806 19.9852 24.4712 19.99 24.5133 20.0013C24.6885 20.0385 24.731 20.1235 24.7415 20.3043C24.7528 20.4739 24.7529 20.6228 24.7529 21.4508V22.1148C24.7529 22.6621 24.6887 23.1132 24.445 23.4161C24.2537 23.6445 23.9348 23.7981 23.6108 23.7981C23.3083 23.7981 23.0696 23.7505 22.8092 23.5062C22.5808 23.2884 22.4107 22.9594 22.4107 22.1945L22.4088 21.4508ZM30.3359 20.1395C30.5587 20.1443 30.782 20.1443 31.0048 20.1508C31.5145 20.1621 31.6423 20.2835 31.6582 20.4428C31.6582 20.4643 31.6631 20.4802 31.6631 20.5014C31.6679 20.5755 31.6792 20.5915 31.7056 20.5915C31.7271 20.5915 31.7431 20.5705 31.7431 20.5224C31.7431 20.4643 31.7592 20.0979 31.7592 19.9385C31.7592 19.9066 31.7593 19.8745 31.7326 19.8745C31.7116 19.8745 31.6635 19.8906 31.584 19.9011C31.4994 19.9172 31.3772 19.9276 31.2069 19.9276H29.2156C29.152 19.9276 28.9503 19.9179 28.7961 19.9011C28.6528 19.8898 28.5997 19.8375 28.5627 19.8375C28.5413 19.8375 28.5201 19.9066 28.5091 19.9385C28.4995 19.9812 28.3925 20.4378 28.3925 20.4907C28.3925 20.5224 28.4038 20.5383 28.4191 20.5383C28.4406 20.5383 28.4561 20.5287 28.4722 20.4852C28.4883 20.4483 28.5041 20.4112 28.5627 20.3206C28.6473 20.1934 28.775 20.1563 29.104 20.1508C29.3644 20.146 29.6297 20.1459 29.8901 20.1395V22.3856C29.8901 22.8953 29.8901 23.315 29.8636 23.5383C29.8425 23.6919 29.816 23.8086 29.7093 23.8301C29.6619 23.8414 29.5982 23.8513 29.5501 23.8513C29.5185 23.8513 29.5075 23.8674 29.5075 23.8832C29.5075 23.9153 29.5342 23.9258 29.5928 23.9258C29.7519 23.9258 30.0863 23.9097 30.113 23.9097C30.1399 23.9097 30.4743 23.9258 30.7663 23.9258C30.8248 23.9258 30.8515 23.9097 30.8515 23.8832C30.8515 23.8671 30.8417 23.8513 30.8088 23.8513C30.7609 23.8513 30.6442 23.8399 30.57 23.8301C30.4103 23.8086 30.3788 23.6919 30.3627 23.5383C30.3362 23.315 30.3362 22.8953 30.3362 22.3856L30.3359 20.1395ZM36.5953 22.3591C36.6218 22.3591 36.6324 22.3704 36.6429 22.3911L37.137 23.6974C37.1686 23.7822 37.137 23.8301 37.105 23.8408C37.0839 23.8456 37.0679 23.8569 37.0679 23.8777C37.0679 23.9099 37.1265 23.9098 37.2272 23.9153C37.5936 23.9266 37.9812 23.9266 38.0608 23.9266C38.1194 23.9266 38.167 23.9153 38.167 23.884C38.167 23.8576 38.1405 23.8521 38.1089 23.8521C38.0663 23.8521 37.9812 23.8472 37.9016 23.8204C37.7899 23.7885 37.6362 23.7034 37.4449 23.2306C37.121 22.4235 36.2873 20.2305 36.2077 20.0286C36.1441 19.8639 36.1226 19.8375 36.0905 19.8375C36.059 19.8375 36.0374 19.8694 35.9738 20.0447L34.7687 23.3423C34.6732 23.6077 34.5669 23.8095 34.3225 23.8416C34.2801 23.8464 34.232 23.8529 34.1948 23.8529C34.1474 23.8529 34.1208 23.8642 34.1208 23.8848C34.1208 23.9169 34.1524 23.9274 34.2214 23.9274C34.4712 23.9274 34.7632 23.9113 34.8218 23.9113C34.8799 23.9113 35.0927 23.9274 35.2199 23.9274C35.268 23.9274 35.3154 23.9161 35.3154 23.8848C35.3154 23.8638 35.2993 23.8529 35.2464 23.8529C35.2302 23.8529 35.2144 23.8529 35.1989 23.8529C35.1082 23.8529 35.0075 23.8052 35.0075 23.699C35.0075 23.6035 35.034 23.4758 35.0816 23.3431L35.4006 22.4034C35.4103 22.3767 35.4271 22.3608 35.4535 22.3608L36.5953 22.3591ZM35.5117 22.1679C35.4955 22.1679 35.4852 22.1565 35.4955 22.1309L35.9627 20.6969C35.9893 20.6173 36.0158 20.6173 36.0423 20.6969L36.547 22.1309C36.5519 22.1518 36.5519 22.1679 36.5255 22.1679H35.5117ZM41.5007 22.3856C41.5007 22.8953 41.5007 23.315 41.4742 23.5383C41.4528 23.6919 41.4211 23.8141 41.3149 23.8356C41.267 23.8469 41.2088 23.8517 41.1767 23.8517C41.1288 23.8517 41.1182 23.8679 41.1182 23.8837C41.1182 23.9158 41.1448 23.9263 41.2034 23.9263C41.3625 23.9263 41.6969 23.9102 41.7236 23.9102C41.7501 23.9102 42.09 23.9263 42.382 23.9263C42.4406 23.9263 42.4621 23.9102 42.4621 23.8837C42.4621 23.8675 42.446 23.8517 42.398 23.8517C42.3664 23.8517 42.2548 23.8404 42.1802 23.8306C42.0209 23.8091 41.9895 23.6924 41.9733 23.5388C41.9469 23.3155 41.9468 22.8958 41.9468 22.3861V21.4513C41.9468 20.6233 41.9469 20.4744 41.9566 20.3048C41.9679 20.1185 42.0097 20.0283 42.1528 20.0018C42.2169 19.9921 42.2486 19.9857 42.286 19.9857C42.307 19.9857 42.3281 19.9743 42.3281 19.954C42.3281 19.922 42.3015 19.9116 42.2434 19.9116C42.0842 19.9116 41.7493 19.9277 41.7228 19.9277C41.6962 19.9277 41.3617 19.9116 41.1864 19.9116C41.128 19.9116 41.1013 19.9229 41.1013 19.954C41.1013 19.9752 41.1228 19.9857 41.144 19.9857C41.1814 19.9857 41.25 19.9905 41.3086 20.0072C41.4253 20.0338 41.4784 20.1239 41.4894 20.3046C41.5007 20.4743 41.5007 20.6231 41.5007 21.4512V22.3856ZM46.2373 23.1452C46.2373 23.6283 46.2108 23.7822 46.0781 23.8196C45.9985 23.8462 45.9028 23.8513 45.8604 23.8513C45.8337 23.8513 45.8178 23.8625 45.8178 23.8832C45.8178 23.9203 45.8497 23.9258 45.9028 23.9258C46.1417 23.9258 46.3645 23.9097 46.4135 23.9097C46.4612 23.9097 46.6734 23.9258 46.9754 23.9258C47.039 23.9258 47.071 23.9145 47.071 23.8832C47.071 23.8622 47.0549 23.8513 47.0284 23.8513C46.981 23.8513 46.8647 23.8464 46.764 23.8196C46.6203 23.7772 46.5672 23.639 46.5567 23.2033L46.4876 20.6598C46.6578 20.851 47.2568 21.5199 47.8722 22.1838C48.4341 22.7893 49.1978 23.5698 49.2563 23.6229C49.5378 23.9044 49.6022 23.9628 49.6448 23.9628C49.6819 23.9628 49.6924 23.9363 49.6924 23.5859L49.7037 20.4844C49.7037 20.118 49.7406 20.0385 49.8894 20.0068C49.953 19.9955 49.9851 19.9907 50.0277 19.9853C50.0646 19.9805 50.0858 19.9692 50.0858 19.9482C50.0858 19.9162 50.0486 19.9112 49.99 19.9112C49.7728 19.9112 49.5975 19.9274 49.5381 19.9274C49.4795 19.9274 49.2246 19.9112 48.9867 19.9112C48.9231 19.9112 48.8805 19.9161 48.8805 19.9482C48.8805 19.9693 48.8966 19.9853 48.9547 19.9853C49.0026 19.9853 49.0864 19.9902 49.182 20.0118C49.3468 20.0545 49.3838 20.1711 49.3893 20.5166L49.4479 23.2143C49.2777 23.039 48.6998 22.3911 48.1749 21.8279C47.3581 20.9517 46.5675 20.097 46.4879 20.0068C46.4348 19.9537 46.3438 19.8367 46.3012 19.8367C46.2588 19.8367 46.2428 19.8951 46.2428 20.102C46.2476 21.1324 46.2379 20.442 46.2379 22.3591L46.2373 23.1452ZM57.61 19.9804C57.5987 19.8792 57.5834 19.8367 57.5462 19.8367C57.5093 19.8367 57.4878 19.8736 57.4666 19.9217L55.9055 23.2565L54.2803 19.9163C54.2537 19.8582 54.2327 19.8367 54.2007 19.8367C54.1686 19.8367 54.1477 19.8846 54.1422 19.9427L53.7601 23.3946C53.7335 23.6123 53.7229 23.8037 53.5478 23.8356C53.4676 23.8518 53.4306 23.8517 53.388 23.8517C53.3615 23.8517 53.3349 23.863 53.3349 23.8837C53.3349 23.9208 53.3725 23.9263 53.4256 23.9263C53.5688 23.9263 53.8237 23.9102 53.8716 23.9102C53.9138 23.9102 54.1846 23.9263 54.3814 23.9263C54.4345 23.9263 54.461 23.915 54.461 23.8782C54.461 23.8621 54.4395 23.8517 54.408 23.8517C54.3759 23.8517 54.3068 23.8517 54.2168 23.8306C54.1372 23.8144 54.0735 23.7721 54.0735 23.6395C54.0735 23.5492 54.0784 23.4747 54.0833 23.3901L54.301 20.8886C54.3591 21.0323 54.9699 22.3436 55.0175 22.4392C55.044 22.4923 55.5011 23.4111 55.639 23.6714C55.74 23.8627 55.7665 23.9158 55.8036 23.9158C55.8517 23.9158 55.8672 23.8677 55.9789 23.6338L57.2957 20.841L57.5506 23.6129C57.5619 23.7086 57.5667 23.7882 57.5294 23.8041C57.5029 23.8138 57.4925 23.8202 57.4925 23.8412C57.4925 23.8677 57.5189 23.8837 57.6411 23.8942C57.8374 23.9103 58.4427 23.9263 58.5599 23.9263C58.6235 23.9263 58.6395 23.915 58.6395 23.8837C58.6395 23.8572 58.6075 23.8517 58.5809 23.8517C58.5278 23.8517 58.4058 23.8518 58.2515 23.8041C58.0232 23.7296 57.9861 23.432 57.9652 23.2412L57.61 19.9804ZM62.1648 22.3856C62.1648 22.8584 62.16 23.1293 62.1551 23.3365C62.1438 23.7346 62.0756 23.8087 61.9639 23.8356C61.9269 23.8469 61.8947 23.8469 61.8416 23.8517C61.8097 23.8566 61.7832 23.8679 61.7832 23.8837C61.7832 23.9158 61.8097 23.9263 61.8683 23.9263C62.0065 23.9311 62.1337 23.9102 62.2613 23.9102C62.4681 23.9102 62.7125 23.9215 62.9253 23.9263C63.132 23.9311 63.3074 23.9425 63.7004 23.9425C63.9077 23.9425 63.9498 23.9425 63.9872 23.8043C64.0139 23.6926 64.0563 23.3316 64.0563 23.289C64.0563 23.2521 64.0563 23.2095 64.0244 23.2095C63.9977 23.2095 63.9872 23.2304 63.9767 23.289C63.9341 23.5174 63.8755 23.629 63.7058 23.6821C63.5622 23.7247 63.3869 23.7297 63.2277 23.7297C63.0205 23.7297 62.8771 23.7184 62.787 23.6821C62.6544 23.629 62.6223 23.5123 62.6118 23.2945C62.6069 23.183 62.6118 22.567 62.6118 22.3862V21.9191C62.6118 21.8976 62.6231 21.8822 62.6489 21.8822C62.739 21.8822 63.2647 21.8934 63.4084 21.9086C63.5992 21.9296 63.6632 22.0039 63.6844 22.0839C63.7005 22.1315 63.7058 22.1845 63.7058 22.2326C63.7058 22.2747 63.7107 22.3172 63.7428 22.3172C63.7639 22.3172 63.7744 22.2907 63.7799 22.2376C63.7848 22.1635 63.7848 22.0413 63.8014 21.8766C63.8175 21.7013 63.8436 21.6113 63.8436 21.5792C63.8436 21.5472 63.8339 21.5365 63.8171 21.5365C63.7959 21.5365 63.78 21.5582 63.7535 21.5896C63.7004 21.6532 63.6313 21.6694 63.4881 21.6799C63.3659 21.6912 62.7125 21.6912 62.6434 21.6912C62.6168 21.6912 62.6118 21.675 62.6118 21.6381V20.1721C62.6118 20.135 62.6231 20.119 62.6434 20.119C62.702 20.119 63.2807 20.1238 63.371 20.1351C63.6047 20.1566 63.7164 20.2097 63.7535 20.3319C63.7697 20.374 63.7799 20.4381 63.7799 20.5072C63.7799 20.5492 63.7913 20.5758 63.8226 20.5758C63.8436 20.5758 63.8596 20.5387 63.8651 20.4856C63.8747 20.3474 63.8811 20.2468 63.8861 20.1673C63.8958 20.0184 63.9286 19.9549 63.9286 19.9174C63.9286 19.8908 63.9238 19.8698 63.9076 19.8698C63.8915 19.8698 63.881 19.8746 63.849 19.8908C63.817 19.9069 63.7214 19.9174 63.6047 19.9229C63.4826 19.9277 62.426 19.9277 62.3885 19.9277C62.0541 19.9116 61.9109 19.9116 61.7887 19.9116C61.7301 19.9116 61.7035 19.9229 61.7035 19.954C61.7035 19.9752 61.7356 19.9807 61.7726 19.9857C61.8202 19.9905 61.8893 19.9905 61.9269 20.0018C62.102 20.0389 62.1442 20.124 62.1551 20.3048C62.1648 20.4744 62.1648 20.6233 62.1648 21.4513V22.3856ZM67.8042 23.1452C67.8042 23.6283 67.7778 23.7822 67.6451 23.8196C67.5655 23.8462 67.4698 23.8513 67.4274 23.8513C67.4007 23.8513 67.3847 23.8625 67.3847 23.8832C67.3847 23.9203 67.4166 23.9258 67.4697 23.9258C67.7086 23.9258 67.9314 23.9097 67.9804 23.9097C68.0281 23.9097 68.2404 23.9258 68.5424 23.9258C68.606 23.9258 68.638 23.9145 68.638 23.8832C68.638 23.8622 68.6218 23.8513 68.5955 23.8513C68.5479 23.8513 68.4316 23.8464 68.3309 23.8196C68.1872 23.7772 68.1342 23.639 68.1237 23.2033L68.0545 20.6598C68.2247 20.851 68.8238 21.5199 69.4392 22.1838C70.0011 22.7893 70.7647 23.5698 70.8231 23.6229C71.1047 23.9044 71.1691 23.9628 71.2117 23.9628C71.2488 23.9628 71.2593 23.9363 71.2593 23.5859L71.2706 20.4844C71.2706 20.118 71.3076 20.0385 71.4564 20.0068C71.52 19.9955 71.552 19.9907 71.5946 19.9853C71.6315 19.9805 71.6527 19.9692 71.6527 19.9482C71.6527 19.9162 71.6155 19.9112 71.5569 19.9112C71.3397 19.9112 71.1644 19.9274 71.105 19.9274C71.0464 19.9274 70.7915 19.9112 70.5536 19.9112C70.49 19.9112 70.4474 19.9161 70.4474 19.9482C70.4474 19.9693 70.4636 19.9853 70.5217 19.9853C70.5696 19.9853 70.6534 19.9902 70.749 20.0118C70.9138 20.0545 70.9507 20.1711 70.9562 20.5166L71.0148 23.2143C70.8446 23.039 70.2668 22.3911 69.7419 21.8279C68.9251 20.9517 68.1345 20.097 68.0549 20.0068C68.0018 19.9537 67.9107 19.8367 67.8681 19.8367C67.8257 19.8367 67.8097 19.8951 67.8097 20.102C67.8146 21.1324 67.8049 20.442 67.8049 22.3591L67.8042 23.1452ZM76.7129 20.1395C76.9357 20.1443 77.1591 20.1443 77.3819 20.1508C77.8916 20.1621 78.0193 20.2835 78.0352 20.4428C78.0352 20.4643 78.0401 20.4802 78.0401 20.5014C78.0449 20.5755 78.0563 20.5915 78.0827 20.5915C78.1042 20.5915 78.1202 20.5705 78.1202 20.5224C78.1202 20.4643 78.1363 20.0979 78.1363 19.9385C78.1363 19.9066 78.1363 19.8745 78.1096 19.8745C78.0886 19.8745 78.0405 19.8906 77.961 19.9011C77.8764 19.9172 77.7542 19.9276 77.5839 19.9276H75.5927C75.5291 19.9276 75.3273 19.9179 75.1731 19.9011C75.0298 19.8898 74.9767 19.8375 74.9397 19.8375C74.9183 19.8375 74.8971 19.9066 74.8861 19.9385C74.8764 19.9812 74.7695 20.4378 74.7695 20.4907C74.7695 20.5224 74.7808 20.5383 74.7961 20.5383C74.8176 20.5383 74.833 20.5287 74.8492 20.4852C74.8653 20.4483 74.8811 20.4112 74.9397 20.3206C75.0243 20.1934 75.152 20.1563 75.481 20.1508C75.7414 20.146 76.0067 20.1459 76.2671 20.1395V22.3856C76.2671 22.8953 76.2671 23.315 76.2406 23.5383C76.2194 23.6919 76.193 23.8086 76.0865 23.8301C76.0389 23.8414 75.9752 23.8513 75.9271 23.8513C75.8955 23.8513 75.8845 23.8674 75.8845 23.8832C75.8845 23.9153 75.9112 23.9258 75.9698 23.9258C76.1289 23.9258 76.4634 23.9097 76.49 23.9097C76.517 23.9097 76.8514 23.9258 77.1434 23.9258C77.2019 23.9258 77.2285 23.9097 77.2285 23.8832C77.2285 23.8671 77.2188 23.8513 77.1859 23.8513C77.138 23.8513 77.0212 23.8399 76.947 23.8301C76.7873 23.8086 76.7558 23.6919 76.7397 23.5383C76.7132 23.315 76.7132 22.8953 76.7132 22.3856L76.7129 20.1395Z" fill="black"/>
</svg>
