<svg width="24" height="24" viewBox="0 0 24 24" fill="none" xmlns="http://www.w3.org/2000/svg">
<g clip-path="url(#clip0_806_25)">
<path d="M2 5.22222C2 3.99653 2.99653 3 4.22222 3H7.77778C8.88235 3 9.77778 3.89543 9.77778 5V7.44444C9.77778 8.05903 10.2743 8.55556 10.8889 8.55556H14.5703C14.9917 8.55556 15.3333 8.8972 15.3333 9.31863C15.3333 9.66009 15.1043 9.95541 14.7861 10.0791C12.5046 10.966 10.8889 13.1822 10.8889 15.7778C10.8889 17.7084 11.7833 19.427 13.1788 20.549C13.2753 20.6266 13.235 20.7778 13.1111 20.7778H4.22222C2.99653 20.7778 2 19.7812 2 18.5556V5.22222ZM13.1111 5.22222C13.9312 6.04228 13.3504 7.44444 12.1906 7.44444C11.4717 7.44444 10.8889 6.86163 10.8889 6.1427C10.8889 4.98296 12.2911 4.40217 13.1111 5.22222ZM17 20.7778C14.2396 20.7778 12 18.5382 12 15.7778C12 13.0174 14.2396 10.7778 17 10.7778C19.7604 10.7778 22 13.0174 22 15.7778C22 18.5382 19.7604 20.7778 17 20.7778ZM17 19.1111C17.4618 19.1111 17.8333 18.7396 17.8333 18.2778C17.8333 17.816 17.4618 17.4444 17 17.4444C16.5382 17.4444 16.1667 17.816 16.1667 18.2778C16.1667 18.7396 16.5382 19.1111 17 19.1111ZM14.7778 14.1667V14.3889C14.7778 14.6944 15.0278 14.9444 15.3333 14.9444C15.6389 14.9444 15.8889 14.6944 15.8889 14.3889V14.1667C15.8889 13.9826 16.0382 13.8333 16.2222 13.8333H17.6285C17.8958 13.8333 18.1111 14.0486 18.1111 14.316C18.1111 14.4965 18.0104 14.6597 17.8542 14.7431L16.7431 15.3264C16.559 15.4236 16.4444 15.6111 16.4444 15.8194V16.3333C16.4444 16.6389 16.6944 16.8889 17 16.8889C17.3056 16.8889 17.5556 16.6389 17.5556 16.3333C17.5556 16.2245 17.616 16.1246 17.7124 16.0741L18.3715 15.7292C18.8958 15.4549 19.2222 14.9097 19.2222 14.3194C19.2222 13.4375 18.5069 12.7257 17.6285 12.7257H16.2222C15.4236 12.7257 14.7778 13.3715 14.7778 14.1701V14.1667Z" fill="black"/>
</g>
<defs>
<clipPath id="clip0_806_25">
<rect x="2" y="3" width="20" height="17.7778" fill="white"/>
</clipPath>
</defs>
</svg>
