<svg width="24" height="24" viewBox="0 0 24 24" fill="none" xmlns="http://www.w3.org/2000/svg">
<path d="M12.2071 12.2929C11.5771 12.9229 12.0233 14 12.9142 14H17C17.2833 14 17.5207 13.904 17.712 13.712C17.904 13.5207 18 13.2833 18 13C18 12.7167 17.904 12.479 17.712 12.287C17.5207 12.0957 17.2833 12 17 12H12.9142C12.649 12 12.3946 12.1054 12.2071 12.2929ZM6.5 14H8.05C8.18333 14 8.30833 13.975 8.425 13.925C8.54167 13.875 8.65 13.8 8.75 13.7L14.35 8.15C14.45 8.05 14.5 7.925 14.5 7.775C14.5 7.625 14.45 7.5 14.35 7.4L12.6 5.65C12.5 5.55 12.375 5.5 12.225 5.5C12.075 5.5 11.95 5.55 11.85 5.65L6.3 11.25C6.2 11.35 6.125 11.4583 6.075 11.575C6.025 11.6917 6 11.8167 6 11.95V13.5C6 13.6333 6.05 13.75 6.15 13.85C6.25 13.95 6.36667 14 6.5 14ZM2 19.575V4C2 3.45 2.196 2.979 2.588 2.587C2.97933 2.19567 3.45 2 4 2H20C20.55 2 21.021 2.19567 21.413 2.587C21.8043 2.979 22 3.45 22 4V16C22 16.55 21.8043 17.021 21.413 17.413C21.021 17.8043 20.55 18 20 18H6.82843C6.298 18 5.78929 18.2107 5.41421 18.5858L3.7 20.3C3.38333 20.6167 3.02067 20.6873 2.612 20.512C2.204 20.3373 2 20.025 2 19.575Z" fill="black"/>
</svg>
